<svg width="19" height="19" viewBox="0 0 19 19" fill="none" xmlns="http://www.w3.org/2000/svg">
<path fill-rule="evenodd" clip-rule="evenodd" d="M9.40698 18.5129C10.5889 18.5129 11.7592 18.2801 12.8511 17.8279C13.9431 17.3756 14.9352 16.7126 15.7709 15.8769C16.6067 15.0412 17.2696 14.049 17.7219 12.9571C18.1742 11.8652 18.407 10.6948 18.407 9.51294C18.407 8.33104 18.1742 7.16072 17.7219 6.06879C17.2696 4.97686 16.6067 3.98471 15.7709 3.14898C14.9352 2.31325 13.9431 1.65032 12.8511 1.19802C11.7592 0.745731 10.5889 0.512939 9.40698 0.512939C7.02003 0.512939 4.73085 1.46115 3.04302 3.14898C1.35519 4.83681 0.406982 7.12599 0.406982 9.51294C0.406982 11.8999 1.35519 14.1891 3.04302 15.8769C4.73085 17.5647 7.02003 18.5129 9.40698 18.5129ZM9.17498 13.1529L14.175 7.15294L12.639 5.87294L8.33898 11.0319L6.11398 8.80594L4.69998 10.2199L7.69998 13.2199L8.47398 13.9939L9.17498 13.1529Z" fill="#FF014F"/>
</svg>
